<?xml version="1.0" encoding="UTF-8" standalone="no"?>
<!-- Created with Inkscape (http://www.inkscape.org/) -->

<svg
   width="156.17223mm"
   height="173.51991mm"
   viewBox="0 0 156.17223 173.51991"
   version="1.1"
   id="svg4711"
   xml:space="preserve"
   sodipodi:docname="airboxCoverOutline.svg"
   inkscape:version="1.2.2 (b0a8486541, 2022-12-01)"
   xmlns:inkscape="http://www.inkscape.org/namespaces/inkscape"
   xmlns:sodipodi="http://sodipodi.sourceforge.net/DTD/sodipodi-0.dtd"
   xmlns="http://www.w3.org/2000/svg"
   xmlns:svg="http://www.w3.org/2000/svg"><sodipodi:namedview
     id="namedview4713"
     pagecolor="#ffffff"
     bordercolor="#666666"
     borderopacity="1.0"
     inkscape:showpageshadow="2"
     inkscape:pageopacity="0.0"
     inkscape:pagecheckerboard="0"
     inkscape:deskcolor="#d1d1d1"
     inkscape:document-units="mm"
     showgrid="false"
     inkscape:zoom="1.7144839"
     inkscape:cx="132.98462"
     inkscape:cy="474.48681"
     inkscape:window-width="3440"
     inkscape:window-height="1371"
     inkscape:window-x="0"
     inkscape:window-y="32"
     inkscape:window-maximized="1"
     inkscape:current-layer="layer1" /><defs
     id="defs4708" /><g
     inkscape:label="airFilterAccessCover"
     inkscape:groupmode="layer"
     id="layer1"
     transform="translate(-71.601224,50.653133)"><path
       style="fill:#000000;fill-opacity:1;stroke:#000000;stroke-width:0.49755;stroke-linecap:butt;stroke-linejoin:miter;stroke-dasharray:none;stroke-opacity:1"
       d="m 71.876789,-50.400913 131.405881,11.054 c 0,0 6.89576,1.37038 8.73493,2.175 2.38079,1.04159 4.57701,2.54874 6.523,4.271 1.77964,1.57502 3.26403,3.48024 4.601,5.445 1.03423,1.51987 1.9454,4.144277 2.612,5.857547 0.58856,1.51267 0.90455,3.12343 1.199,4.71964 0.2434,1.31949 0.37712,2.65933 0.466,3.99814 0.13634,2.05377 0.102,6.1740409 0.102,6.1740409 0,0 -0.72658,7.64932995 -0.92,11.46678 -1.20754,6.8009521 -8.02014,24.2789721 -10,29.4708521 -1.23458,3.10775 -2.40144,7.801684 -5,10.11578 -1.14811,1.022427 -5,5 -5,5 l -87.30008,68.500003 -2.89604,2.0996 c 0,0 -9.89564,5.70935 -16.1362,1.05162 C 83.470791,109.11974 79.90704,104.38753 72.355704,99.376087 71.907013,99.084503 71.871839,88.012736 71.876789,86.838766 c 0.003,-0.62534 0,-1.966679 0,-1.966679 V -41.094561 c 0,0 -0.0152,-1.544812 0,-2.526352 0.0142,-0.915429 0.0205,-1.107617 0,-2.296477 -0.0312,-0.77406 -0.03997,-4.470068 0,-4.483523 z"
       id="path403"
       sodipodi:nodetypes="ccsssssscccscccccsccscc"
       inkscape:export-filename="airboxCoverOutline.svg"
       inkscape:export-xdpi="96"
       inkscape:export-ydpi="96" /></g></svg>
