<?xml version="1.0" encoding="UTF-8" standalone="no"?>
<!-- Created with Inkscape (http://www.inkscape.org/) -->

<svg
   width="76.386322mm"
   height="188.25104mm"
   viewBox="0 0 76.386322 188.25104"
   version="1.1"
   id="svg22373"
   xmlns="http://www.w3.org/2000/svg"
   xmlns:svg="http://www.w3.org/2000/svg">
  <defs
     id="defs22370" />
  <g
     id="layer1"
     transform="translate(-66.806837,-54.374484)">
    <path
       id="path2942"
       style="fill:#000000;fill-opacity:1;stroke:#000000;stroke-width:0.611156px;stroke-linecap:butt;stroke-linejoin:miter;stroke-opacity:1"
       d="m 131.96737,54.680804 c -0.55356,0.0044 -1.10825,0.02726 -1.66088,0.03359 -1.26513,0.01453 -2.53723,-0.019 -3.79357,0.136425 -1.31294,0.162416 -2.59735,0.518504 -3.88555,0.828374 -1.08996,0.262185 -2.14341,0.700344 -3.24993,0.871781 -0.28247,0.04375 -0.5822,-0.04651 -0.85576,0.03876 -2.92338,0.911163 -5.39559,3.012327 -7.85791,4.887557 -1.4006,1.066656 -2.6196,2.36994 -3.89745,3.592029 -0.78427,0.750077 -2.31252,2.29495 -2.31252,2.29495 L 76.852905,92.039247 c 0,0 -3.52714,1.171727 -5.16971,2.041736 -0.6007,0.31817 -1.1828,0.692371 -1.6924,1.151351 -0.90505,0.815139 -1.84527,1.685744 -2.37505,2.802413 -0.37606,0.792671 -0.40963,1.715658 -0.50333,2.598293 v 6.50244 c 1.41393,35.15873 4.76505,68.79178 6.79545,103.47637 0,0 -0.49595,10.47302 0.0909,15.65589 0.0975,0.86118 0.24118,1.73526 0.56638,2.5337 0.43786,1.07504 1.04648,2.10261 1.82573,2.94297 1.14996,1.24019 2.64094,2.09624 4.07572,2.95744 1.28668,0.61195 2.51743,0.57113 3.73568,0.63149 1.63134,0.1009 4.86844,0.60462 4.86844,0.60462 14.826705,0.61057 30.199005,3.57053 44.586935,6.35775 5.68578,-5.36556 9.22993,-12.97374 9.22993,-21.44468 V 71.371258 c 0,-5.554372 -1.52389,-10.738687 -4.17442,-15.163932 -0.78868,-0.295847 -1.5833,-0.573783 -2.38848,-0.814938 -0.88755,-0.265825 -1.78542,-0.522119 -2.70268,-0.634586 -0.54887,-0.0673 -1.10111,-0.0814 -1.65467,-0.077 z" />
  </g>
</svg>
