<?xml version="1.0" encoding="UTF-8" standalone="no"?>
<!-- Created with Inkscape (http://www.inkscape.org/) -->

<svg
   version="1.1"
   id="svg2815"
   width="299.05551mm"
   height="202.74763mm"
   viewBox="0 0 1130.2885 766.29027"
   sodipodi:docname="airboxSide.svg"
   inkscape:version="1.2.2 (b0a8486541, 2022-12-01)"
   xmlns:inkscape="http://www.inkscape.org/namespaces/inkscape"
   xmlns:sodipodi="http://sodipodi.sourceforge.net/DTD/sodipodi-0.dtd"
   xmlns="http://www.w3.org/2000/svg"
   xmlns:svg="http://www.w3.org/2000/svg">
  <sodipodi:namedview
     id="namedview12027"
     pagecolor="#ffffff"
     bordercolor="#666666"
     borderopacity="1.0"
     inkscape:showpageshadow="2"
     inkscape:pageopacity="0.0"
     inkscape:pagecheckerboard="0"
     inkscape:deskcolor="#d1d1d1"
     inkscape:document-units="mm"
     showgrid="false"
     inkscape:zoom="9.3781362"
     inkscape:cx="1083.5309"
     inkscape:cy="127.26409"
     inkscape:window-width="3440"
     inkscape:window-height="1371"
     inkscape:window-x="0"
     inkscape:window-y="32"
     inkscape:window-maximized="1"
     inkscape:current-layer="svg2815" />
  <defs
     id="defs2819" />
  <g
     id="g2821"
     transform="translate(-190.76123,-89.295744)">
    <path
       style="fill:#000000;fill-opacity:1;stroke:#000000;stroke-width:2.30988px;stroke-linecap:butt;stroke-linejoin:miter;stroke-opacity:1"
       d="m 903.35343,564.56991 389.97087,-310.2477 c 0,0 7.175,-6.76249 10.4053,-10.50134 4.5835,-5.88383 8.6396,-10.70382 12.372,-16.70081 0.9689,-1.89592 1.4503,-4.02584 2.0112,-6.09211 0.5526,-2.03527 1.0458,-4.09791 1.3295,-6.19212 0.3451,-2.54808 0.4844,-5.1328 0.4464,-7.70573 -0.02,-1.42572 -0.076,-2.8681 -0.3729,-4.26004 -0.4326,-2.02445 -1.2151,-3.95969 -2.0314,-5.85173 -0.9906,-2.29602 -2.1513,-4.52048 -3.462,-6.63591 -1.732,-2.79572 -3.5727,-5.55858 -5.788,-7.95699 -5.6602,-4.0813 -12.2471,-6.76096 -18.5349,-8.7732 -2.6179,-0.82665 -8.0339,-1.74726 -8.0339,-1.74726 L 490.40157,108.02262 c 0,0 -12.57956,-5.90384 -19.00339,-8.516352 -5.71473,-2.324123 -11.46629,-4.594402 -17.36276,-6.360428 -3.3545,-1.0047 -6.74839,-1.974392 -10.21519,-2.399465 -4.14891,-0.508695 -8.35455,-0.211778 -12.53193,-0.163956 -4.78158,0.05492 -9.58863,-0.07062 -14.33703,0.516797 -4.96226,0.613855 -9.8178,1.959082 -14.68655,3.130244 -4.11953,0.99094 -8.10066,2.64726 -12.2828,3.295209 -1.06759,0.16537 -2.20113,-0.176447 -3.23508,0.145817 -11.04901,3.443764 -20.39117,11.385454 -29.69762,18.472944 -5.29362,4.03146 -9.90238,8.95757 -14.73198,13.57649 -2.96424,2.83494 -8.74043,8.67393 -8.74043,8.67393 l -104.31755,93.25913 c 0,0 -13.33051,4.42955 -19.53863,7.71776 -2.27036,1.20254 -4.47121,2.61593 -6.39725,4.35065 -3.42067,3.08086 -6.97449,6.37071 -8.97682,10.59121 -1.4982,3.15792 -1.55663,6.86941 -1.96071,10.3657 -0.41517,3.59244 -0.46952,10.84393 -0.46952,10.84393 5.00478,137.68537 18.28507,268.85104 26.21288,404.27874 0,0 -1.87539,39.58284 0.343,59.17166 0.3686,3.25485 0.91185,6.55883 2.14096,9.57656 1.6549,4.06313 3.95466,7.94783 6.89985,11.124 4.34635,4.68728 9.98188,7.92289 15.40467,11.1778 4.86308,2.31287 9.51528,2.1589 14.11973,2.38705 6.16566,0.38135 18.39904,2.28407 18.39904,2.28407 72.07251,2.96796 147.64369,20.6454 214.18596,32.69753 14.25133,2.86138 27.31005,10.24557 41.08919,14.98957 2.84417,0.97921 5.61563,2.33687 8.58105,2.78035 3.11656,0.46608 6.32284,0.26616 9.44455,-0.16092 1.63595,-0.22382 3.01031,-0.75125 4.65155,-0.92809 3.31037,-0.3567 6.89482,-0.74328 10.12729,0.0804 1.38735,0.35353 2.71814,1.03239 3.87372,1.90567 6.68362,5.05092 10.85764,13.01248 17.00108,18.75773 2.06325,1.92953 4.18339,3.87226 6.62766,5.23802 2.74151,1.53186 5.7574,2.59295 8.81365,3.2033 1.71279,0.34205 3.49536,0.44833 5.22736,0.23513 2.62948,-0.32368 5.16221,-1.29384 7.63669,-2.27397 2.36054,-0.93498 4.69783,-2.00686 6.82699,-3.42038 1.8131,-1.20369 3.47727,-2.66552 4.98783,-4.25822 1.82436,-1.92357 3.42848,-4.08177 4.86199,-6.33512 1.29566,-2.03666 2.46316,-4.18377 3.34866,-6.44556 1.12861,-2.8827 2.00601,-5.90317 2.46376,-8.97908 0.5418,-3.64089 0.6032,-7.37651 0.30942,-11.04806 -0.17417,-2.1774 -0.69449,-4.31548 -1.22226,-6.43032 -0.50072,-2.00648 -1.83956,-5.91726 -1.83956,-5.91726 l 0.63742,-3.75062 -0.0426,-3.70991 v -5.27275 l -0.48725,-5.20473 0.65292,-2.21458 1.04007,-1.77405 6.16747,-7.53346 198.20675,-156.6552 4.09634,-0.7303 c 0,0 1.28461,0.71304 1.88096,1.14437 1.45611,1.05318 2.67835,2.42684 4.11708,3.50555 3.28752,2.46487 6.51651,5.1882 10.28029,6.75105 3.84854,1.59803 8.05851,2.22533 12.1924,2.52455 3.23844,0.23439 6.52677,0.009 9.72269,-0.58262 2.27257,-0.42126 4.48987,-1.18437 6.62563,-2.09536 2.05194,-0.87524 4.00378,-2.00469 5.89171,-3.21513 1.78294,-1.14309 3.63573,-2.25641 5.10792,-3.80593 1.37846,-1.45087 2.29941,-3.30703 3.36925,-5.01657 1.47194,-2.35204 3.14425,-4.61621 4.19143,-7.20265 0.76801,-1.8969 1.07331,-3.96519 1.48521,-5.97833 0.42163,-2.06083 0.72185,-4.14752 1.00714,-6.23348 0.21426,-1.56629 0.54297,-3.1322 0.52868,-4.71418 -0.0226,-2.41048 -0.58365,-4.78337 -0.93519,-7.16607 -0.33846,-2.29414 -0.52148,-4.63003 -1.13014,-6.86302 -0.3524,-1.29285 -0.93883,-2.50446 -1.44807,-3.73948 -0.70929,-1.72019 -2.23774,-5.11005 -2.23774,-5.11005 z"
       id="path2942"
       sodipodi:nodetypes="ccccssccssccccssscssssssccssssccsssccccssssssssssssssssssccccccccccsssscssssssscssscc" />
  </g>
</svg>
