<?xml version="1.0" encoding="UTF-8" standalone="no"?>
<!-- Created with Inkscape (http://www.inkscape.org/) -->

<svg
   width="143.73247mm"
   height="143.77858mm"
   viewBox="0 0 143.73247 143.77858"
   version="1.1"
   id="svg4711"
   xml:space="preserve"
   inkscape:version="1.2.2 (b0a8486541, 2022-12-01)"
   sodipodi:docname="airboxCoverRasiedOutline.svg"
   xmlns:inkscape="http://www.inkscape.org/namespaces/inkscape"
   xmlns:sodipodi="http://sodipodi.sourceforge.net/DTD/sodipodi-0.dtd"
   xmlns="http://www.w3.org/2000/svg"
   xmlns:svg="http://www.w3.org/2000/svg"><sodipodi:namedview
     id="namedview4713"
     pagecolor="#ffffff"
     bordercolor="#666666"
     borderopacity="1.0"
     inkscape:showpageshadow="2"
     inkscape:pageopacity="0.0"
     inkscape:pagecheckerboard="0"
     inkscape:deskcolor="#d1d1d1"
     inkscape:document-units="mm"
     showgrid="false"
     inkscape:zoom="1.3266287"
     inkscape:cx="-47.111901"
     inkscape:cy="332.79847"
     inkscape:window-width="3440"
     inkscape:window-height="1371"
     inkscape:window-x="0"
     inkscape:window-y="32"
     inkscape:window-maximized="1"
     inkscape:current-layer="layer1" /><defs
     id="defs4708" /><g
     inkscape:groupmode="layer"
     id="layer8"
     inkscape:label="base 1"
     transform="translate(-0.39888114)" /><g
     inkscape:label="base"
     inkscape:groupmode="layer"
     id="layer1"
     transform="translate(-76.967088,30.781171)"
     style="fill:#ff1700;fill-opacity:1;stroke:#000cff;stroke-opacity:1"><path
       style="fill:#000000;fill-opacity:1;stroke:#000000;stroke-width:0.49755;stroke-linecap:butt;stroke-linejoin:miter;stroke-dasharray:none;stroke-opacity:1"
       d="m 139.79473,4.9353839 c 33.98324,7.9899301 57.51424,14.4934801 71.62296,18.6978701 1.91052,0.7204 8.96624,1.878226 9.03212,4.357468 -1.18123,3.972661 -4.40953,7.470102 -7.49915,10.472933 l -90.58284,71.019925 c 0,0 -10.7523,6.08797 -16.97699,1.63166 C 89.291121,99.345456 85.792069,94.504774 78.240739,89.493338 c -0.94649,-0.69456 -0.96195,-1.36381 -0.957,-2.53778 0.003,-0.62534 0.052,-1.967001 0.052,-1.967001 L 77.215863,-25.861766 c -0.06599,-0.0262 1.862322,0.32225 3.012876,0.525 0.737895,0.13003 1.840274,0.47291 3.17,-0.86089 0.752898,-0.75521 1.235893,-1.23459 1.891,-1.88811 1.083967,-1.81311 1.157628,-2.74706 2.553,-2.36006 0.767293,0.66926 3.138552,3.11874 4.156,4.07968 0.785578,0.74194 6.731764,6.64565 7.650004,7.61016 3.529177,3.70705 6.854407,6.40443 10.260987,9.4146399 2.43898,2.15519 4.34783,3.72003 8.5,6.09946 7.0954,4.06606997 13.4935,6.20642 21.385,8.17727 z"
       id="path403"
       sodipodi:nodetypes="cccccccsccssccssssc"
       inkscape:export-filename="airboxCoverOutline.svg"
       inkscape:export-xdpi="96"
       inkscape:export-ydpi="96" /></g></svg>
