<?xml version="1.0" encoding="UTF-8" standalone="no"?>
<!-- Created with Inkscape (http://www.inkscape.org/) -->

<svg
   width="57.577457mm"
   height="68.342247mm"
   viewBox="0 0 57.577457 68.342247"
   version="1.1"
   id="svg12154"
   xml:space="preserve"
   xmlns="http://www.w3.org/2000/svg"
   xmlns:svg="http://www.w3.org/2000/svg"><defs
     id="defs12151" /><g
     id="layer6"
     style="fill:#ffff00"
     transform="translate(-117.09386,-80.412453)"><path
       style="fill:#000000;fill-opacity:1;stroke:#000000;stroke-width:0.264583px;stroke-linecap:butt;stroke-linejoin:miter;stroke-opacity:1"
       d="m 174.37655,85.912007 -3.6211,8.105486 a 3.8925938,3.8925938 88.627584 0 0 0.0801,3.343897 l 3.46114,6.84672 a 2.254515,2.254515 102.58572 0 1 -0.62368,2.79343 l -52.59285,41.10658 a 2.3811761,2.3811761 34.482346 0 1 -3.74379,-2.57134 l 2.9654,-9.71401 a 109.60943,109.60943 98.392872 0 0 4.77532,-32.36629 l -0.0631,-19.018338 a 3.8802962,3.8802962 137.18533 0 1 4.18882,-3.880886 l 44.08297,3.516472 a 1.3086385,1.3086385 59.316664 0 1 1.09077,1.838279 z"
       id="path12727" /></g></svg>
