<?xml version="1.0" encoding="UTF-8" standalone="no"?>
<!-- Created with Inkscape (http://www.inkscape.org/) -->

<svg
   width="77.999947mm"
   height="62.999969mm"
   viewBox="0 0 77.999947 62.999969"
   version="1.1"
   id="svg5"
   xml:space="preserve"
   xmlns="http://www.w3.org/2000/svg"
   xmlns:svg="http://www.w3.org/2000/svg"><defs
     id="defs2" /><g
     id="layer1"
     transform="translate(-0.86026224,-24.439433)"><path
       style="fill:#000000;fill-opacity:1;stroke:#000000;stroke-width:0.989537;stroke-linecap:butt;stroke-linejoin:miter;stroke-dasharray:none;stroke-opacity:1"
       d="m 7.5988006,39.918778 v 31.592865 c 0,0 -1.0407333,0.671924 -1.571049,1.019625 -0.5303157,0.347701 -1.1861777,0.695489 -1.6106595,1.066792 -0.4244817,0.371305 -0.5695323,0.587919 -0.9556249,1.093253 -0.3860926,0.505335 -1.0074407,1.268525 -1.3080405,1.968504 -0.3005998,0.699977 -0.3941927,1.45175 -0.4917008,2.152257 -0.097508,0.700508 -0.1768775,1.382545 -0.1058187,2.033226 0.071059,0.65068 0.2401749,1.181684 0.5036668,1.823342 0.2634919,0.641657 0.6987672,1.47059 1.1078553,1.981908 0.4090881,0.511316 0.7692487,0.806314 1.2343894,1.107178 0.4651406,0.300866 0.9827668,0.48262 1.5225629,0.675021 0.5397961,0.192402 1.0698322,0.38251 1.7097848,0.468609 0.6399525,0.08611 2.1012844,0 2.1012844,0 H 67.750318 c 0,0 2.723168,-0.0836 4.043112,-0.383395 1.265833,-0.287515 2.594284,-0.595975 3.654311,-1.343036 0.782914,-0.551763 1.375262,-1.368436 1.837923,-2.205483 0.557088,-1.007884 0.996011,-2.135003 1.069609,-3.28335 0.06775,-1.057163 -0.217652,-2.131036 -0.5908,-3.122931 -0.308908,-0.821132 -0.718777,-1.644366 -1.336895,-2.268503 -0.497323,-0.502166 -1.18989,-0.768626 -1.817152,-1.095777 -0.491905,-0.256554 -1.065221,-0.36072 -1.520733,-0.677051 -0.365316,-0.253694 -0.647183,-0.612369 -0.933477,-0.952228 -0.137653,-0.163406 -0.374749,-0.519818 -0.374749,-0.519818 V 39.33642 c 0,0 0.72322,-0.797046 1.144912,-1.101202 0.421691,-0.304156 0.836057,-0.324879 1.355204,-0.712288 0.519148,-0.387408 1.099321,-0.919171 1.643467,-1.686855 0.544145,-0.767682 1.234607,-2.107488 1.462883,-2.947374 0.228276,-0.839884 0.200139,-1.214347 0.135036,-1.927973 -0.06511,-0.713625 -0.256229,-1.590357 -0.589901,-2.292566 -0.333673,-0.702209 -0.826837,-1.321152 -1.363276,-1.849701 -0.53644,-0.528547 -1.257831,-0.986271 -1.806689,-1.291157 -0.548858,-0.304886 -1.427908,-0.593102 -1.427908,-0.593102 H 7.8693185 c 0,0 -1.2484912,0.219822 -1.7270977,0.407411 -0.4786066,0.187589 -0.8113476,0.264236 -1.2177443,0.530165 -0.4063966,0.265927 -0.9388007,0.589139 -1.3327375,0.875995 -0.3939369,0.286856 -0.5814532,0.506754 -0.9499744,0.963998 -0.3685209,0.45724 -0.65529,1.374743 -0.8564042,2.027942 -0.2011144,0.653198 -0.3128753,1.236818 -0.3730656,1.863087 -0.060191,0.626271 -0.087358,1.376337 0.011347,1.875349 0.098704,0.499011 0.2576911,0.718183 0.4412438,1.091563 0.1835527,0.37338 0.3947114,0.741377 0.6663781,1.138508 0.2716668,0.397129 0.5842145,0.881735 0.9740435,1.228841 0.3898293,0.347105 0.8700866,0.588037 1.3287067,0.824206 0.45862,0.236168 1.0098833,0.363217 1.412864,0.5907 0.4029805,0.227484 0.7832193,0.455272 1.0046413,0.735798 0.2214217,0.280526 0.3472823,0.831013 0.3472814,0.831013 z"
       id="path974" /></g></svg>
